<svg width="100" height="100" viewBox="0 0 100 100" fill="none" xmlns="http://www.w3.org/2000/svg">
  <path d="M30 50C30 40 38 32 45 32C52 32 60 50 60 50C60 50 68 68 75 68C82 68 90 60 90 50C90 40 82 32 75 32C68 32 60 50 60 50C60 50 52 68 45 68C38 68 10 60 10 50C10 40 18 32 30 32Z" 
    stroke="white" stroke-width="12" stroke-linecap="round" stroke-linejoin="round"/>
  <path d="M30 50C30 40 38 32 45 32C52 32 60 50 60 50C60 50 68 68 75 68C82 68 90 60 90 50C90 40 82 32 75 32C68 32 60 50 60 50C60 50 52 68 45 68C38 68 10 60 10 50C10 40 18 32 30 32Z" 
    stroke="#6366F1" stroke-width="6" stroke-linecap="round" stroke-linejoin="round"/>
</svg>
